<svg width="63" height="63" viewBox="0 0 63 63" fill="none" xmlns="http://www.w3.org/2000/svg">
<path d="M44.625 42L55.125 31.5M55.125 31.5L44.625 21M55.125 31.5H18.375M34.125 42V44.625C34.125 46.7136 33.2953 48.7166 31.8185 50.1935C30.3416 51.6703 28.3386 52.5 26.25 52.5H15.75C13.6614 52.5 11.6584 51.6703 10.1815 50.1935C8.70469 48.7166 7.875 46.7136 7.875 44.625V18.375C7.875 16.2864 8.70469 14.2834 10.1815 12.8065C11.6584 11.3297 13.6614 10.5 15.75 10.5H26.25C28.3386 10.5 30.3416 11.3297 31.8185 12.8065C33.2953 14.2834 34.125 16.2864 34.125 18.375V21" stroke="white" stroke-width="4" stroke-linecap="round" stroke-linejoin="round"/>
</svg>
