<svg width="12" height="10" viewBox="0 0 12 10" fill="none" xmlns="http://www.w3.org/2000/svg">
<path d="M2.15902 2.159C1.95008 2.36793 1.78435 2.61597 1.67127 2.88896C1.5582 3.16194 1.5 3.45452 1.5 3.75C1.5 4.04548 1.5582 4.33806 1.67127 4.61104C1.78435 4.88403 1.95008 5.13207 2.15902 5.341L6.00002 9.182L9.84102 5.341C10.263 4.91904 10.5 4.34674 10.5 3.75C10.5 3.15326 10.263 2.58096 9.84102 2.159C9.41906 1.73704 8.84676 1.49999 8.25002 1.49999C7.65328 1.49999 7.08098 1.73704 6.65902 2.159L6.00002 2.818L5.34102 2.159C5.13209 1.95007 4.88405 1.78433 4.61106 1.67125C4.33808 1.55818 4.0455 1.49998 3.75002 1.49998C3.45454 1.49998 3.16196 1.55818 2.88898 1.67125C2.61599 1.78433 2.36795 1.95007 2.15902 2.159V2.159Z" stroke="white" stroke-width="1.5" stroke-linecap="round" stroke-linejoin="round"/>
</svg>
