<svg width="40" height="40" viewBox="0 0 40 40" fill="none" xmlns="http://www.w3.org/2000/svg">
<path d="M20.0624 39.6797C9.30463 39.6797 0.609319 30.8828 0.656194 19.9453C0.718694 9.125 9.43744 0.36719 20.3046 0.484378C30.8984 0.601565 39.5703 9.28125 39.4921 20.2344C39.414 31.0156 30.7734 39.6563 20.0624 39.6797ZM20.1171 2.02344C10.3906 1.97657 2.28901 9.89063 2.19526 19.8828C2.09369 30.0781 10.2343 38.0469 19.8828 38.1406C29.7265 38.2422 37.9062 30.2734 37.9531 20.2344C38.0078 10.125 30.0234 2.02344 20.1171 2.02344Z" fill="#E94436"/>
<path d="M8.57812 14.0391C9.03906 12.9609 9.70312 12.0156 10.4687 11.1406C13.5469 7.65625 17.4375 6.10156 22.0547 6.4375C24.9141 6.64844 27.4375 7.75781 29.6406 9.58594C29.8203 9.73438 29.8828 9.82813 29.6797 10.0234C28.5078 11.1719 27.3516 12.3281 26.1953 13.5C25.9922 13.7031 25.875 13.7656 25.6016 13.5547C21.3984 10.3828 15.1328 12.2188 13.3047 17.1484C13.2578 17.2734 13.2109 17.3906 13.1562 17.5078C11.6328 16.3594 10.1016 15.2031 8.57812 14.0391Z" fill="#E94436"/>
<path d="M13.1641 22.625C13.7656 24.3672 14.7969 25.8047 16.3516 26.7969C19.2109 28.6172 22.1797 28.6094 25.1797 27.125C25.2734 27.0781 25.3594 27.0312 25.4531 26.9766C26.8672 28.1328 28.3203 29.2422 29.7813 30.3437C28.2188 31.875 26.3359 32.8594 24.2266 33.3516C19.2813 34.5 14.9297 33.3203 11.2344 29.8437C10.1094 28.7891 9.20312 27.5469 8.57812 26.125C10.1016 24.9531 11.6328 23.7891 13.1641 22.625Z" fill="#35A853"/>
<path d="M29.7812 30.3359C28.3203 29.2344 26.8749 28.125 25.4531 26.9688C26.7421 26.0703 27.664 24.8984 28.0859 23.3594C28.2187 22.875 28.2265 22.875 27.7343 22.875C25.5859 22.875 23.4375 22.8672 21.2968 22.8828C20.9218 22.8828 20.8515 22.7734 20.8593 22.4297C20.8749 20.9297 20.8749 19.4375 20.8593 17.9375C20.8593 17.6563 20.9218 17.5625 21.2187 17.5625C25.2421 17.5703 29.2578 17.5703 33.2812 17.5625C33.5312 17.5625 33.6406 17.6172 33.6953 17.8906C34.1562 20.2422 33.9218 22.5469 33.2343 24.8203C32.6328 26.8281 31.5781 28.5703 30.1015 30.0547C29.9999 30.1641 29.8828 30.2422 29.7812 30.3359Z" fill="#4285F3"/>
<path d="M13.1641 22.625C11.6328 23.7891 10.1094 24.9531 8.57813 26.1172C7.9375 24.8906 7.54688 23.5781 7.33594 22.2109C6.90625 19.4375 7.29688 16.7812 8.45313 14.2344C8.48438 14.1641 8.53125 14.1016 8.57813 14.0391C10.1094 15.1953 11.6328 16.3594 13.1641 17.5156C12.6484 19.2188 12.6328 20.9219 13.1641 22.625Z" fill="#FABB06"/>
</svg>
