<svg width="42" height="42" viewBox="0 0 42 42" fill="none" xmlns="http://www.w3.org/2000/svg">
<path d="M21.0903 41.6637C9.76994 41.6637 0.656266 32.4352 0.697281 20.9508C0.7465 9.60586 9.90119 0.393756 21.3035 0.5086C32.4762 0.623444 41.5653 9.79454 41.4668 21.2707C41.3766 32.5582 32.3203 41.6309 21.0903 41.6637ZM21.1231 2.12462C10.9102 2.0754 2.40353 10.3852 2.30509 20.877C2.19845 31.5574 10.7297 39.941 20.8852 40.0477C31.2047 40.1543 39.8098 31.7953 39.859 21.2461C39.9082 10.6313 31.5246 2.12462 21.1231 2.12462Z" fill="#4486F3"/>
<path d="M16.9723 28.3008C16.9723 26.0449 16.9641 23.7891 16.9805 21.5332C16.9805 21.1394 16.8657 21.0574 16.4965 21.0656C15.6926 21.0902 14.8805 21.0656 14.0766 21.0738C13.8469 21.0738 13.7649 21.0164 13.7649 20.7785C13.7731 19.3594 13.7731 17.932 13.7649 16.5129C13.7649 16.2586 13.8469 16.1766 14.093 16.1848C14.9297 16.193 15.7583 16.1766 16.595 16.193C16.8821 16.2012 16.9723 16.1109 16.9723 15.8238C16.9559 14.5687 16.9641 13.3055 16.9641 12.0504C16.9723 9.05625 18.7934 7.30898 21.5004 6.80039C22.9688 6.52148 24.4454 6.63632 25.9137 6.61171C26.6684 6.60351 27.4149 6.61992 28.1696 6.60351C28.4813 6.59531 28.5223 6.72656 28.5223 6.98906C28.5141 8.42461 28.5141 9.86015 28.5223 11.2957C28.5223 11.5828 28.4403 11.673 28.1532 11.6648C27.1442 11.6484 26.127 11.6566 25.118 11.6566C24.0844 11.6566 23.5348 12.2227 23.5348 13.2562C23.5348 14.1012 23.543 14.9543 23.5266 15.7992C23.5184 16.0863 23.6086 16.1766 23.8958 16.1684C25.2903 16.1519 26.6848 16.1684 28.0793 16.1519C28.4075 16.1519 28.4977 16.234 28.4731 16.5703C28.35 17.973 28.1778 19.3676 27.9645 20.7621C27.9235 21.0082 27.8333 21.0738 27.5954 21.0656C26.3813 21.0574 25.159 21.0738 23.945 21.0492C23.6004 21.041 23.5184 21.1477 23.5266 21.484C23.5348 26.0121 23.5266 30.532 23.543 35.0602C23.543 35.4047 23.4774 35.5277 23.1 35.5195C21.1969 35.4949 19.302 35.5031 17.3989 35.5195C17.0625 35.5195 16.9641 35.4375 16.9641 35.093C16.9805 32.8371 16.9723 30.573 16.9723 28.3008Z" fill="#4486F3"/>
</svg>
