<svg width="271" height="82" viewBox="0 0 271 82" fill="none" xmlns="http://www.w3.org/2000/svg">
<path d="M64.4427 22.5511V26.7095C64.4427 29.3622 60.2808 29.4084 60.2808 26.7095V14.3657C60.2808 10.154 53.7005 10.1043 53.7005 14.3657V22.5511C53.7005 25.1932 49.5385 25.2464 49.5385 22.5511V8.73358C49.5385 4.52546 42.9618 4.4722 42.9618 8.73358V13.8721C42.9618 16.4857 38.7999 16.6171 38.7999 13.8721V3.14052C38.7999 -0.950409 32.2196 -1.14217 32.2196 3.14052V13.8721C32.2196 16.5461 28.0612 16.571 28.0612 13.8721V8.73358C28.0612 4.53612 21.4773 4.4722 21.4773 8.73358V21.5781C21.4773 24.2343 17.319 24.2841 17.319 21.5781V14.3657C17.319 10.1505 10.7387 10.1043 10.7387 14.3657V40.4915C10.7387 43.1407 6.57673 43.1939 6.57673 40.4915V22.5511C6.57673 18.4744 0 18.2897 0 22.5511V59.4475C0 63.6628 6.57673 63.7089 6.57673 59.4475V55.8041C6.57673 53.1478 10.7387 53.1016 10.7387 55.8041V67.6329C10.7387 71.8446 17.319 71.8943 17.319 67.6329V59.9589C17.319 57.3204 21.4809 57.2636 21.4809 59.9589V73.2615C21.4809 77.4732 28.0612 77.5229 28.0612 73.2615V68.645C28.0612 66.0314 32.2196 65.9 32.2196 68.645V78.8581C32.2196 82.9491 38.7999 83.1444 38.7999 78.8581V68.6415C38.7999 65.9675 42.9618 65.939 42.9618 68.6415V73.258C42.9618 77.4519 49.5421 77.5193 49.5421 73.258V60.9319C49.5421 58.2757 53.7005 58.2295 53.7005 60.9319V67.6329C53.7005 71.8482 60.2808 71.8943 60.2808 67.6329V42.537C60.2808 39.8843 64.4427 39.8345 64.4427 42.537V59.4475C64.4427 63.5243 71.023 63.7089 71.023 59.4475V22.5511C71.023 18.3501 64.4427 18.2826 64.4427 22.5511Z" fill="#D50055" fill-opacity="0.8"/>
<path d="M35.5612 81.2055C34.1585 81.2339 32.7203 80.4597 32.7203 78.851V68.6415C32.7203 65.3744 27.5321 65.3496 27.5321 68.6415V73.258C27.5321 76.7168 21.9816 76.7452 21.9816 73.258V59.9589C21.9816 56.7949 16.7899 56.6635 16.7899 59.9589V67.633C16.7899 71.0953 11.2394 71.1273 11.2394 67.633V55.8041C11.2394 52.5299 6.04763 52.5051 6.04763 55.8041V59.4476C6.04763 62.8673 0.500732 62.981 0.500732 59.4476V22.5511C0.500732 19.2414 6.04763 19.0745 6.04763 22.5511V40.4915C6.04763 43.7728 11.2394 43.787 11.2394 40.4915V14.3657C11.2394 10.9459 16.7899 10.8678 16.7899 14.3657V21.5781C16.7899 24.8593 21.9781 24.8771 21.9781 21.5781V8.73358C21.9781 5.38129 27.5321 5.26055 27.5321 8.73358V13.8721C27.5321 17.1427 32.7203 17.1818 32.7203 13.8721V3.14052C32.7203 -0.215319 38.2708 -0.27924 38.2708 3.14052V13.8721C38.2708 17.1072 43.4625 17.1995 43.4625 13.8721V8.73358C43.4625 5.27831 49.0094 5.2357 49.0094 8.73358V22.5511C49.0094 25.8395 54.2012 25.8359 54.2012 22.5511V14.3657C54.2012 11.0028 59.7517 10.8962 59.7517 14.3657V26.7095C59.7517 29.9943 64.9434 30.005 64.9434 26.7095V22.5511C64.9434 19.0994 70.4939 19.0497 70.4939 22.5511V59.4476C70.4939 62.8354 64.9434 62.8709 64.9434 59.4476V42.537C64.9434 39.277 59.7517 39.2415 59.7517 42.537V67.633C59.7517 71.1024 54.2012 71.1237 54.2012 67.633V60.9319C54.2012 57.672 49.013 57.6294 49.013 60.9319V73.2651C49.013 76.6351 43.4625 76.7736 43.4625 73.2651V68.6486C43.4625 65.3744 38.2708 65.3425 38.2708 68.6486V78.8617C38.285 80.3922 36.932 81.1841 35.5612 81.2055Z" fill="#D50055" fill-opacity="0.7"/>
<path d="M32.7203 14.1455C32.4433 17.1782 27.5462 17.0504 27.5462 13.8721V8.73357C27.5462 5.26055 21.9922 5.38129 21.9922 8.73357V21.5781C21.9922 24.8771 16.804 24.8593 16.804 21.5781V14.3657C16.804 10.8678 11.2536 10.9459 11.2536 14.3657V40.4915C11.2536 43.787 6.06179 43.7728 6.06179 40.4915V22.5511C6.06179 19.0745 0.514893 19.2414 0.514893 22.5511V59.4476C0.514893 62.9809 6.06179 62.8673 6.06179 59.4476V55.8041C6.06179 52.5051 11.2536 52.5299 11.2536 55.8041V67.6329C11.2536 71.1273 16.804 71.0953 16.804 67.6329V59.9589C16.804 56.6635 21.9958 56.7948 21.9958 59.9589V73.2615C21.9958 76.7523 27.5462 76.7239 27.5462 73.2615V68.645C27.5462 65.3531 32.7345 65.378 32.7345 68.645V78.8581C32.7345 80.4668 34.1549 81.241 35.5754 81.2125C36.9959 81.1841 38.2991 80.3958 38.2991 78.8581V68.6415C38.2991 65.3354 43.4909 65.3673 43.4909 68.6415V73.258C43.4909 76.7665 49.0413 76.628 49.0413 73.258V60.9319C49.0413 57.6294 54.2296 57.672 54.2296 60.9319V67.6329C54.2296 71.1237 59.78 71.1024 59.78 67.6329V42.537C59.78 39.2415 64.9718 39.277 64.9718 42.537V59.4476C64.9718 62.8709 70.5223 62.8353 70.5223 59.4476V38.1016C54.5243 36.8161 40.5363 27.4268 32.7203 14.1455Z" fill="#D50055" fill-opacity="0.8"/>
<path d="M55.2559 49.6002C35.863 49.6002 18.8424 37.6577 11.2536 20.8359V40.5022C11.2536 43.7976 6.06179 43.7834 6.06179 40.5022V22.5511C6.06179 19.0745 0.514893 19.2414 0.514893 22.5511V59.4476C0.514893 62.9809 6.06179 62.8673 6.06179 59.4476V55.8041C6.06179 52.505 11.2536 52.5299 11.2536 55.8041V67.6329C11.2536 71.1273 16.804 71.0953 16.804 67.6329V59.9589C16.804 56.6635 21.9958 56.7948 21.9958 59.9589V73.2615C21.9958 76.7523 27.5462 76.7239 27.5462 73.2615V68.645C27.5462 65.3531 32.7345 65.378 32.7345 68.645V78.8581C32.7345 80.4668 34.1549 81.2409 35.5754 81.2125C36.9959 81.1841 38.2991 80.3958 38.2991 78.8581V68.6415C38.2991 65.3353 43.4909 65.3673 43.4909 68.6415V73.258C43.4909 76.7665 49.0414 76.628 49.0414 73.258V60.9319C49.0414 57.6294 54.2296 57.672 54.2296 60.9319V67.6329C54.2296 71.1237 59.78 71.1024 59.78 67.6329V49.3694C58.2814 49.5233 56.7734 49.6002 55.2559 49.6002Z" fill="#D50055" fill-opacity="0.9"/>
<path d="M64.9576 48.5775V59.4475C64.9576 62.8708 70.5081 62.8353 70.5081 59.4475V47.0505C68.6907 47.6718 66.8371 48.1817 64.9576 48.5775V48.5775Z" fill="#D50055" fill-opacity="0.9"/>
<path d="M44.4391 62.9809C25.1137 62.9809 8.13921 51.1201 0.514893 34.3871V59.4476C0.514893 62.9809 6.06179 62.8673 6.06179 59.4476V55.8041C6.06179 52.5051 11.2536 52.5299 11.2536 55.8041V67.6329C11.2536 71.1273 16.804 71.0953 16.804 67.6329V59.9589C16.804 56.6635 21.9958 56.7948 21.9958 59.9589V73.2615C21.9958 76.7523 27.5462 76.7239 27.5462 73.2615V68.645C27.5462 65.3531 32.7345 65.378 32.7345 68.645V78.8581C32.7345 80.4668 34.1549 81.241 35.5754 81.2125C36.9959 81.1841 38.2991 80.3958 38.2991 78.8581V68.6415C38.2991 65.3354 43.4909 65.3673 43.4909 68.6415V73.258C43.4909 76.7665 49.0413 76.628 49.0413 73.258V62.7395C47.5191 62.8981 45.985 62.9786 44.4391 62.9809Z" fill="#D50055"/>
<path d="M64.9576 58.2792V59.4476C64.9576 62.8709 70.5081 62.8353 70.5081 59.4476V55.1436C68.7285 56.309 66.8744 57.3565 64.9576 58.2792V58.2792Z" fill="#D50055"/>
<path d="M54.2155 61.9511V67.6329C54.2155 71.1237 59.7659 71.1024 59.7659 67.6329V60.417C57.9488 61.0411 56.0952 61.5534 54.2155 61.9511V61.9511Z" fill="#D50055"/>
<path d="M31.5484 26.6278L49.5598 37.0291C50.2567 37.4315 50.8354 38.0103 51.2377 38.7072C51.64 39.4041 51.8518 40.1946 51.8518 40.9993C51.8518 41.804 51.64 42.5946 51.2377 43.2915C50.8354 43.9884 50.2567 44.5671 49.5598 44.9695L31.5484 55.3673C30.8514 55.7701 30.0607 55.9823 29.2557 55.9825C28.4506 55.9827 27.6598 55.771 26.9626 55.3686C26.2654 54.9662 25.6864 54.3873 25.2839 53.6901C24.8815 52.9929 24.6696 52.2021 24.6698 51.3971V30.6016C24.6701 29.7967 24.8821 29.006 25.2846 28.309C25.6871 27.612 26.2659 27.0331 26.9628 26.6305C27.6598 26.2278 28.4504 26.0156 29.2552 26.0152C30.0601 26.0147 30.851 26.226 31.5484 26.6278V26.6278Z" fill="white"/>
<path d="M108.068 45.4262C108.068 54.0662 103.748 58.3862 95.1075 58.3862C86.4675 58.3862 82.1475 54.0662 82.1475 45.4262V25.6022C82.1475 24.8662 82.4195 24.2262 82.9635 23.6822C83.5075 23.1382 84.1475 22.8662 84.8835 22.8662H86.2275C86.9635 22.8662 87.6035 23.1382 88.1475 23.6822C88.6915 24.2262 88.9635 24.8662 88.9635 25.6022V45.8102C88.9635 48.3062 89.4595 50.1142 90.4515 51.2342C91.4755 52.3222 93.0595 52.8662 95.2035 52.8662C97.3475 52.8662 98.9155 52.3222 99.9075 51.2342C100.932 50.1142 101.444 48.3062 101.444 45.8102V25.6022C101.444 24.8662 101.716 24.2262 102.26 23.6822C102.804 23.1382 103.444 22.8662 104.18 22.8662H105.332C106.068 22.8662 106.708 23.1382 107.252 23.6822C107.796 24.2262 108.068 24.8662 108.068 25.6022V45.4262ZM121.783 28.3382V39.9062C121.783 40.1302 121.911 40.2742 122.167 40.3382C123.383 40.4982 124.567 40.5782 125.719 40.5782C128.311 40.5782 130.279 40.0182 131.623 38.8982C132.999 37.7462 133.687 36.1142 133.687 34.0022C133.687 29.7462 131.031 27.6182 125.719 27.6182C124.567 27.6182 123.383 27.6982 122.167 27.8582C121.911 27.9222 121.783 28.0822 121.783 28.3382ZM117.847 57.9062C117.111 57.9062 116.471 57.6342 115.927 57.0902C115.415 56.5462 115.159 55.9062 115.159 55.1702V25.8422C115.159 25.0742 115.415 24.3862 115.927 23.7782C116.439 23.1702 117.079 22.8342 117.847 22.7702C120.567 22.5142 123.191 22.3862 125.719 22.3862C130.519 22.3862 134.119 23.3462 136.519 25.2662C138.919 27.1542 140.119 29.9062 140.119 33.5222C140.119 37.5222 138.951 40.5462 136.615 42.5942C134.311 44.6422 130.887 45.6662 126.343 45.6662C125.287 45.6662 123.895 45.6022 122.167 45.4742C121.911 45.4742 121.783 45.6022 121.783 45.8582V55.1702C121.783 55.9062 121.511 56.5462 120.967 57.0902C120.423 57.6342 119.783 57.9062 119.047 57.9062H117.847ZM148.035 57.9062C147.299 57.9062 146.659 57.6342 146.115 57.0902C145.571 56.5462 145.299 55.9062 145.299 55.1702V25.6022C145.299 24.8662 145.571 24.2262 146.115 23.6822C146.659 23.1382 147.299 22.8662 148.035 22.8662H149.235C150.067 22.8662 150.835 23.0902 151.539 23.5382C152.243 23.9862 152.755 24.5782 153.075 25.3142L161.475 43.4582C161.475 43.4902 161.491 43.5062 161.523 43.5062C161.555 43.5062 161.571 43.4902 161.571 43.4582L169.971 25.3142C170.291 24.5782 170.803 23.9862 171.507 23.5382C172.211 23.0902 172.979 22.8662 173.811 22.8662H175.203C175.939 22.8662 176.579 23.1382 177.123 23.6822C177.667 24.2262 177.939 24.8662 177.939 25.6022V55.1702C177.939 55.9062 177.667 56.5462 177.123 57.0902C176.579 57.6342 175.939 57.9062 175.203 57.9062H174.147C173.411 57.9062 172.771 57.6342 172.227 57.0902C171.683 56.5462 171.411 55.9062 171.411 55.1702V34.2902C171.411 34.2582 171.395 34.2422 171.363 34.2422C171.331 34.2422 171.315 34.2582 171.315 34.2902L165.555 46.6262C165.203 47.3622 164.659 47.9702 163.923 48.4502C163.219 48.8982 162.467 49.1222 161.667 49.1222H161.379C160.579 49.1222 159.811 48.8982 159.075 48.4502C158.371 47.9702 157.843 47.3622 157.491 46.6262L151.731 34.2902C151.731 34.2582 151.715 34.2422 151.683 34.2422C151.651 34.2422 151.635 34.2582 151.635 34.2902V55.1702C151.635 55.9062 151.363 56.5462 150.819 57.0902C150.275 57.6342 149.635 57.9062 148.899 57.9062H148.035ZM208.462 40.3862C208.462 32.0662 205.422 27.9062 199.342 27.9062C193.262 27.9062 190.222 32.0662 190.222 40.3862C190.222 48.7062 193.262 52.8662 199.342 52.8662C205.422 52.8662 208.462 48.7062 208.462 40.3862ZM211.006 53.6342C208.158 56.8022 204.27 58.3862 199.342 58.3862C194.414 58.3862 190.51 56.8022 187.63 53.6342C184.782 50.4662 183.358 46.0502 183.358 40.3862C183.358 34.7222 184.782 30.3062 187.63 27.1382C190.51 23.9702 194.414 22.3862 199.342 22.3862C204.27 22.3862 208.158 23.9702 211.006 27.1382C213.886 30.3062 215.326 34.7222 215.326 40.3862C215.326 46.0502 213.886 50.4662 211.006 53.6342ZM227.043 55.3142L217.107 25.4582C216.883 24.8182 216.963 24.2262 217.347 23.6822C217.731 23.1382 218.259 22.8662 218.931 22.8662H220.659C221.459 22.8662 222.195 23.1222 222.867 23.6342C223.539 24.1142 223.971 24.7382 224.163 25.5062L231.507 51.2822C231.507 51.3142 231.523 51.3302 231.555 51.3302C231.587 51.3302 231.603 51.3142 231.603 51.2822L239.043 25.4582C239.267 24.6902 239.699 24.0662 240.339 23.5862C241.011 23.1062 241.747 22.8662 242.547 22.8662H244.083C244.755 22.8662 245.283 23.1382 245.667 23.6822C246.051 24.2262 246.131 24.8182 245.907 25.4582L235.971 55.3142C235.715 56.0822 235.251 56.7062 234.579 57.1862C233.939 57.6662 233.203 57.9062 232.371 57.9062H230.643C229.843 57.9062 229.107 57.6662 228.435 57.1862C227.795 56.7062 227.331 56.0822 227.043 55.3142ZM254.37 57.9062C253.634 57.9062 252.994 57.6342 252.45 57.0902C251.906 56.5462 251.634 55.9062 251.634 55.1702V25.6022C251.634 24.8662 251.906 24.2262 252.45 23.6822C252.994 23.1382 253.634 22.8662 254.37 22.8662H256.29C257.026 22.8662 257.666 23.1382 258.21 23.6822C258.754 24.2262 259.026 24.8662 259.026 25.6022V55.1702C259.026 55.9062 258.754 56.5462 258.21 57.0902C257.666 57.6342 257.026 57.9062 256.29 57.9062H254.37Z" fill="white"/>
</svg>
