<svg width="52" height="52" viewBox="0 0 52 52" fill="none" xmlns="http://www.w3.org/2000/svg">
<path d="M31.5042 30.0639H28.5273V31.6003H31.5042V30.0639Z" fill="white"/>
<path d="M21.9015 30.0639H18.9247V31.6003H21.9015V30.0639Z" fill="white"/>
<path d="M35.9876 30.0639H33.3286V31.6003H35.9876V30.0639Z" fill="white"/>
<path d="M26.7028 30.0639H23.726V31.6003H26.7028V30.0639Z" fill="white"/>
<path d="M40.8317 22.2408H16.9424L39.3262 14.0114C39.5174 13.941 39.6729 13.7976 39.7584 13.6127C39.8439 13.4278 39.8524 13.2165 39.7822 13.0252L38.3076 9.01458C38.2728 8.91989 38.2197 8.83299 38.1513 8.75883C38.0829 8.68467 38.0006 8.62471 37.909 8.58237C37.8174 8.54003 37.7184 8.51614 37.6176 8.51207C37.5168 8.508 37.4162 8.52382 37.3215 8.55864L12.673 17.6206C12.4818 17.6909 12.3264 17.8343 12.2408 18.0193C12.1553 18.2042 12.1468 18.4155 12.2171 18.6068L13.6916 22.6175C13.7218 22.6987 13.7656 22.7743 13.8211 22.8409C13.8086 22.8961 13.8022 22.9524 13.802 23.009V41.6186C13.8027 42.1941 14.0316 42.7459 14.4385 43.1528C14.8454 43.5597 15.3972 43.7886 15.9727 43.7893H39.4293C40.0048 43.7886 40.5565 43.5597 40.9635 43.1528C41.3704 42.7459 41.5993 42.1941 41.6 41.6186V23.009C41.6 22.9081 41.5801 22.8082 41.5415 22.715C41.5029 22.6218 41.4463 22.5371 41.3749 22.4658C41.3036 22.3944 41.2189 22.3378 41.1257 22.2992C41.0325 22.2606 40.9326 22.2408 40.8317 22.2408ZM40.0635 26.5139H36.8792V23.7772H40.0635V26.5139ZM15.3385 26.5139V23.7772H18.5228V26.5139H15.3385ZM22.4128 23.7772H25.8076V26.5139H22.4128V23.7772ZM29.6976 23.7772H32.9892V26.5139H29.6975L29.6976 23.7772ZM24.6947 17.7537L21.5084 18.9251L20.5641 16.3565L23.7503 15.185L24.6947 17.7537ZM27.4014 13.8428L30.4908 12.707L31.4352 15.2756L28.3457 16.4114L27.4014 13.8428ZM38.075 12.8344L35.0863 13.9332L34.1419 11.3646L37.1306 10.2658L38.075 12.8344ZM16.913 17.6988L17.8573 20.2674L14.8686 21.3662L13.9242 18.7976L16.913 17.6988ZM39.4293 42.2528H15.9727C15.8045 42.2526 15.6433 42.1858 15.5244 42.0669C15.4055 41.948 15.3387 41.7868 15.3385 41.6186V28.0503H40.0635V41.6186C40.0633 41.7868 39.9965 41.948 39.8776 42.0669C39.7587 42.1858 39.5975 42.2526 39.4293 42.2528Z" fill="white"/>
<path d="M36.4649 35.008H18.9371C18.6709 35.008 18.4157 35.1137 18.2275 35.3019C18.0393 35.4901 17.9336 35.7453 17.9336 36.0115V38.7746C17.9336 38.8983 17.9579 39.0207 18.0053 39.135C18.0526 39.2492 18.122 39.353 18.2094 39.4405C18.2968 39.5279 18.4006 39.5973 18.5149 39.6446C18.6291 39.6919 18.7516 39.7163 18.8753 39.7163H36.5267C36.6503 39.7163 36.7728 39.6919 36.887 39.6446C37.0013 39.5973 37.1051 39.5279 37.1925 39.4405C37.28 39.353 37.3493 39.2492 37.3966 39.135C37.444 39.0207 37.4683 38.8983 37.4683 38.7746V36.0114C37.4683 35.7453 37.3626 35.4901 37.1744 35.3019C36.9862 35.1137 36.731 35.008 36.4649 35.008Z" fill="white"/>
</svg>
