<svg width="325" height="326" viewBox="0 0 325 326" fill="none" xmlns="http://www.w3.org/2000/svg">
<circle cx="162.585" cy="163.071" r="162.302" fill="#D50055"/>
<path d="M151.587 76.6793L242.151 139.147C245.655 141.563 248.565 145.039 250.588 149.224C252.611 153.41 253.676 158.157 253.676 162.99C253.676 167.823 252.611 172.571 250.588 176.756C248.565 180.942 245.655 184.417 242.151 186.834L151.587 249.28C148.082 251.699 144.106 252.973 140.058 252.975C136.011 252.976 132.034 251.705 128.528 249.288C125.023 246.871 122.112 243.394 120.088 239.207C118.064 235.02 116.999 230.271 117 225.436V100.544C117.002 95.7105 118.068 90.9621 120.091 86.776C122.115 82.5898 125.025 79.1132 128.53 76.6952C132.034 74.2772 136.009 73.0028 140.056 73C144.103 72.9972 148.08 74.2661 151.587 76.6793Z" fill="white"/>
</svg>
